<?xml version="1.0" encoding="utf-8"?>
<!-- Generator: Adobe Illustrator 16.0.0, SVG Export Plug-In . SVG Version: 6.00 Build 0)  -->
<!DOCTYPE svg PUBLIC "-//W3C//DTD SVG 1.1//EN" "http://www.w3.org/Graphics/SVG/1.1/DTD/svg11.dtd">
<svg version="1.1" id="Ebene_1" xmlns="http://www.w3.org/2000/svg" xmlns:xlink="http://www.w3.org/1999/xlink" x="0px" y="0px"
	 width="47px" height="17px" viewBox="0 0 47 17" enable-background="new 0 0 47 17" xml:space="preserve">
<g>
	<path fill="#A4A3A3" d="M8.857,9.607c0-3.262-2.536-5.247-5.656-5.247H0.208v10.509h2.978c1.417,0,2.647-0.283,3.766-1.197
		C8.165,12.68,8.857,11.167,8.857,9.607L8.857,9.607z M6.746,9.607c0,0.977-0.393,2.001-1.134,2.646
		c-0.803,0.709-1.764,0.834-2.804,0.834H2.256V6.141h0.552c1.04,0,2,0.126,2.804,0.851C6.337,7.653,6.746,8.63,6.746,9.607
		L6.746,9.607z M15.837,6.141V4.36h-5.562v10.509h2.048v-4.616h3.292v-1.78h-3.292V6.141H15.837L15.837,6.141z M27.164,4.36h-2.221
		l-2.836,7.058L19.303,4.36h-2.237l4.475,10.776h1.086L27.164,4.36L27.164,4.36z"/>
	<path fill="#A4A3A3" d="M33.971,10.734c0.027,0.027,0.04-0.014,0.054-0.027c0.067,0.04,0.149,0.068,0.204,0.068
		c0.026,0.026,0.067,0.041,0.095,0.053c0.108,0,0.231,0.055,0.366,0.082c0.042,0,0.096-0.027,0.096-0.027
		c0.421-0.203-0.122-0.412-0.109-0.398c-0.244-0.053-0.651-0.176-0.761-0.339c-0.271-0.19-0.49-0.329-0.463-0.438
		c0.04-0.054,0.027-0.121,0.054-0.176c0.027-0.041,0.041-0.218,0.055-0.271c0.04-0.055,0.06-0.082,0.073-0.123
		c0.054-0.082,0.04-0.203,0.082-0.285c0.027-0.041,0.07-0.081,0.124-0.121c0-0.015,0.011-0.109,0.011-0.123
		c0-0.068,0.041-0.027,0.055-0.055C34,8.404,33.918,8.444,34.014,8.377c0.014-0.014,0.085-0.109,0.098-0.137l0.065-0.23
		c0.068-0.054,0.145-0.19,0.198-0.244V7.725l0.051-0.095c0.082-0.122,0.256-0.329,0.46-0.424c0.027-0.027,0.041,0.041,0.067-0.041
		c0.056-0.081,0.348-0.103,0.484-0.198c0.054-0.054,0.176-0.068,0.339-0.068c0.149-0.027,0.176-0.084,0.366-0.057l0.219-0.041
		c0.542-0.082-0.109-0.204-0.19-0.204c-0.096,0-0.259,0.027-0.34,0.027c-0.014-0.027-0.108-0.055-0.123-0.055
		c-0.04,0-0.054,0.068-0.095,0.082c-0.163-0.014-0.434,0.095-0.57,0.15c-0.04,0-0.04,0.094-0.054,0.094
		c-0.041,0.014-0.149-0.027-0.204-0.027c-0.014,0.027-0.041,0.108-0.054,0.122c-0.149,0.027-0.245,0.149-0.422,0.366
		c0,0-0.067,0.014-0.081,0.055c-0.096,0.095-0.163,0.217-0.23,0.285l-0.083,0.15l-0.054,0.055l-0.054,0.081
		c-0.014,0-0.027,0-0.027,0.014c0,0.013,0.014,0.013,0.014,0.013c-0.041,0.068-0.082,0.163-0.123,0.218
		c-0.081,0.108-0.013,0.149-0.04,0.231c-0.014,0.013-0.095,0.039-0.109,0.08c-0.04,0.055-0.054,0.137-0.081,0.177
		c-0.04,0.136-0.163,0.313-0.19,0.367c-0.081,0.122-0.067,0.339-0.177,0.38c-0.189-0.041-0.353-0.313-0.516-0.408
		c-0.163-0.066-0.326-0.257-0.448-0.393c-0.122-0.123-0.529-0.57-0.665-0.76c-0.041-0.068-0.15-0.136-0.19-0.19V7.643
		c0-0.068-0.136-0.204-0.163-0.23c0-0.041,0.068-0.611,0.096-0.761c0.04-0.217,0.014-0.326,0.014-0.489
		c0.013-0.258,0.107-0.611,0.107-0.87c0-0.041-0.054-0.067-0.054-0.054c-0.014-0.082,0.054-0.135,0.054-0.258
		c0.015-0.299,0.056-0.394,0.028-0.557l-0.068-0.313c-0.014-0.041,0.014-0.082,0-0.123c-0.041-0.19-0.081-0.313-0.123-0.435
		c-0.039-0.163-0.107-0.312-0.162-0.367c-0.014-0.014,0.014-0.095,0-0.122c-0.014-0.041-0.109-0.081-0.122-0.122
		c-0.122-0.204-0.15-0.354-0.313-0.435c-0.108-0.054-0.203-0.122-0.259-0.136c-0.284-0.067-0.421,0.068-0.502,0.136
		c-0.122,0.096-0.273,0.286-0.343,0.367c-0.067,0.109-0.121,0.176-0.135,0.312c-0.014,0.095-0.054,0.123-0.067,0.258
		c-0.015,0.122-0.137,0.339-0.109,0.489c0.027,0.177,0.009,1.059,0.036,1.195c0.013,0.014,0.067,0,0.081,0
		c0,0.027-0.014,0.108,0,0.136c0.054,0.19,0.136,0.353,0.177,0.502c0.013,0.055-0.014,0.123,0,0.177
		c0.013,0.041,0.067,0.068,0.107,0.122c0.041,0.136,0.014,0.312,0.122,0.394c0,0.19,0.349,0.448,0.402,0.611
		c-0.027,0-0.054,0.231-0.054,0.34c-0.041,0.109-0.041,0.217-0.055,0.325c-0.055,0.259-0.026,0.327-0.055,0.435
		c-0.014,0.055,0,0.122,0,0.177c-0.122,0.693-0.067,0.625-0.148,1.344c-0.042,0.544-0.096,1.114-0.123,1.576
		c-0.026,0.639-0.026,1.412-0.014,1.873c0,0.15-0.054,0.299-0.081,0.49c0,0.082,0.081,0.096,0.081,0.189
		c0,0.096-0.081,0.109-0.081,0.26c0.013,0.121,0.055,0.135,0.081,0.242c0.014,0.246-0.026,0.313,0.055,0.381
		c0.014,0.014,0,0.096,0,0.123c0.055,0.162,0.217,0.365,0.313,0.502c0.109,0.121,0.136,0.246,0.19,0.313
		c0.014,0.027,0.108-0.014,0.121,0c0.204,0.082,0.204,0,0.367,0c0.082,0,0.163-0.082,0.204-0.137
		c0.026-0.027,0.04,0.027,0.067-0.055c0-0.039-0.027-0.094,0-0.121c0.015-0.041,0.096-0.094,0.109-0.137
		c0.095-0.121,0.258-0.217,0.299-0.297c0.041-0.068,0.027-0.123,0.068-0.191c0.014-0.027,0.108-0.082,0.122-0.121
		c0.096-0.164,0.068-0.26,0.122-0.381c0.027-0.041,0.108-0.096,0.136-0.121c0.026-0.068,0.026-0.15,0.068-0.191
		c0.095-0.162,0.136-0.258,0.177-0.436c0.014-0.053,0.054-0.039,0.067-0.066c0.041-0.109,0.109-0.191,0.123-0.246
		c0.013-0.027-0.014-0.094,0-0.135c0.107-0.244,0.188-0.381,0.257-0.598c0.082-0.271,0.161-0.379,0.242-0.652
		c0.013-0.067,0.04-0.081,0.054-0.176c0.068-0.258,0.093-0.354,0.174-0.557c0.015-0.082,0.055-0.177,0.082-0.245
		c0-0.027,0.108-0.108,0.123-0.136c0.054-0.136,0.081-0.373,0.176-0.469c0.122,0.041,0.331,0.301,0.63,0.49L33.971,10.734
		L33.971,10.734z M31.227,13.891c-0.082,0.137-0.136,0.543-0.366,0.475c-0.108-0.326-0.15-0.842-0.108-1.223v-0.135
		c-0.082-0.055,0-0.027,0-0.107v-0.436c0-0.055-0.082-0.068-0.068-0.137c0,0,0.068-0.027,0.068-0.066c0-0.15-0.027-0.558,0-0.815
		c0-0.109,0.054-0.204,0.054-0.313c0.014-0.259-0.026-0.503,0-0.747c0.014-0.163,0.014-0.408,0.041-0.584
		c0.054-0.285,0.04-0.557,0.122-0.814c0.014-0.055-0.014-0.178,0.014-0.258c0.067-0.123-0.014-0.334,0.041-0.47
		c0.217-0.015,0.72,0.638,0.828,0.706c0.149,0.149,0.34,0.407,0.503,0.543c0.148,0.108,0.366,0.34,0.529,0.448
		c0.04,0.204-0.108,0.238-0.176,0.442c-0.056,0.149-0.137,0.488-0.19,0.666c-0.027,0.094-0.082,0.162-0.123,0.258
		c-0.026,0.054-0.026,0.135-0.055,0.23c-0.04,0.095-0.081,0.081-0.135,0.203c-0.027,0.082-0.096,0.204-0.15,0.395
		c-0.04,0.137-0.121,0.299-0.136,0.408c-0.121-0.014-0.013,0.203-0.067,0.244c-0.014,0.027-0.177,0.123-0.177,0.203
		c-0.014,0.094-0.095,0.08-0.135,0.135c-0.042,0.084-0.014,0.164-0.056,0.246c-0.014,0.027-0.067,0-0.067,0.066
		c0,0.096-0.109,0.137-0.123,0.26C31.294,13.715,31.254,13.863,31.227,13.891L31.227,13.891z M30.412,3.813
		c0.136,0.516-0.23,2.051-0.258,2.621c-0.123-0.082-0.163-0.245-0.204-0.367c-0.013-0.041-0.122-0.299-0.122-0.326
		c-0.055-0.15-0.095-0.503-0.163-0.666c0-0.013-0.041-0.027-0.055-0.068c-0.013-0.041,0.014-0.095,0-0.136
		c-0.04-0.108,0.055-0.679,0.055-0.801c-0.041-0.313,0.082-0.57,0.313-0.95c0.204-0.028,0.217,0.122,0.312,0.271
		c0.042,0.068,0.042,0.109,0.069,0.19C30.371,3.637,30.412,3.813,30.412,3.813L30.412,3.813z"/>
	<path fill="#A4A3A3" d="M37.804,4.066c-0.001,1.066-0.015,2.12-0.028,3.2l0.012,0.317L37.711,7.61
		c-0.05,0.015-0.089-0.009-0.14,0.005L37.46,7.67l-0.141,0.005c-0.024,0.001-0.024,0.001-0.037,0.014
		c-0.115-0.021-0.218-0.069-0.259-0.144c-0.104-0.085-0.203,0.007-0.277,0.06c-0.04,0.319,0.212,0.359,0.441,0.376
		c0.038,0.011,0.151-0.005,0.303-0.023l0.014,0.013c0.025-0.001,0.038-0.015,0.038-0.027l0.05-0.001L37.591,7.93
		c0.039,0,0.077,0.01,0.127-0.017l0.088-0.029l0.042,0.424c0.022,0.267,0.016,0.376,0.022,0.591c0.022,0.291,0.06,0.608,0.069,0.899
		c0.006,0.152-0.025,0.355-0.02,0.521c0.002,0.063,0.031,0.164,0.047,0.228c0.006,0.178-0.001,1.078,0.004,1.23
		c0.003,0.076,0.029,0.1,0.044,0.15c0.032,0.189-0.023,0.434-0.02,0.561c0.001,0.023,0.054,0.049,0.054,0.049
		c0.031,0.924-0.073,1.943-0.078,2.857c-0.006,0.203-0.099,0.447,0.085,0.605c0.226-0.057,0.673,0.027,0.795-0.104
		c0.173-0.514,0.079-1.018,0.138-1.514c0.043-0.23,0.086-0.436,0.079-0.664c-0.002-0.063-0.031-0.15-0.033-0.189
		c0-0.012,0.05-0.039,0.05-0.039c0.023-0.42-0.002-0.773-0.01-0.99c-0.009-0.66,0.03-2.069,0.009-2.678
		c-0.001-0.025-0.053-0.062-0.053-0.062c-0.002-0.063,0.074-0.04-0.004-0.089c-0.038-0.024,0.03-0.255,0.029-0.268
		c-0.028-0.456-0.013-1.104-0.052-1.47c-0.03-0.152-0.049-0.172-0.041-0.326L39,7.582c0.051-0.001,0.051-0.001,0.114,0.009
		c0.09,0.01,0.073-0.065,0.188-0.056c0.051,0.011,0.037-0.027,0.049-0.04c0.126-0.042,0.203-0.02,0.252-0.06
		c-0.001-0.013,0.189-0.041,0.189-0.041c0.365-0.102,0.73-0.181,1.122-0.258c0.302-0.062,0.592-0.146,0.908-0.182
		c0.034-0.103,0.203-0.007,0.278-0.022c0.015,0.038,0.017,0.101,0.055,0.113c0.193,0.095,0.16-0.12,0.274-0.137
		c0.045-0.142-0.146-0.257-0.21-0.268L42.17,6.63c-0.115-0.022-0.255-0.017-0.356-0.013l0.002,0.051
		c-0.013,0-0.163,0.044-0.163,0.044c-0.051,0.001-0.063-0.011-0.088,0.028l-0.151,0.03c-0.202,0.02-0.314,0.062-0.492,0.081
		c-0.089,0.003-0.138,0.042-0.239,0.059c-0.024,0.001-0.037,0.026-0.037,0.026c-0.088,0.029-0.216,0.008-0.292,0.01
		c-0.049,0.027-0.074,0.041-0.15,0.043c-0.038-0.012-0.036,0.04-0.049,0.04c-0.052,0.001-0.104-0.035-0.152-0.02
		c0,0.012-0.062,0.078-0.086,0.079c-0.152,0.043-0.242,0.008-0.291,0.061c-0.013,0-0.15,0.031-0.15,0.031
		c-0.063,0.002-0.077-0.01-0.088,0.028c-0.025,0.014-0.09-0.022-0.103-0.009c-0.013,0.014,0.002,0.038-0.011,0.052
		c-0.013,0.013-0.077-0.023-0.077-0.023C39.17,7.242,39.197,7.28,39.185,7.28c-0.013,0.014-0.077-0.01-0.103-0.009
		c-0.024,0-0.074,0.053-0.099,0.054l-0.025,0.001l0.026-0.331l-0.035-0.278c-0.062-0.315-0.008-0.596-0.006-0.888
		c-0.004-0.114-0.059-0.227-0.061-0.29c-0.001-0.025,0.062-0.041,0.062-0.041c-0.002-0.05-0.065-0.073-0.068-0.149
		c0.034-0.09,0.07-0.167,0.092-0.27c0.022-0.115,0.018-0.254,0.013-0.381c-0.01-0.266-0.096-0.567-0.026-0.748
		c-0.032-0.177-0.067-0.324-0.091-0.616c0.126-0.03,0.238-0.058,0.29-0.06c0.011-0.013,0.037-0.001,0.05-0.001
		c0.051-0.002,0.037-0.04,0.049-0.04c0.152-0.018,0.218,0.002,0.279-0.038c0.012-0.026,0.076-0.003,0.089-0.003
		c0.277-0.061,0.542-0.13,0.757-0.163c0.051-0.001,0.049-0.04,0.074-0.041c0.163-0.044,0.339-0.06,0.466-0.078
		c0.051-0.001,0.05-0.027,0.062-0.04c0.202-0.07,0.493-0.069,0.657-0.1c0.038-0.001,0.05-0.04,0.062-0.04l0.581-0.053
		c0.076-0.016,0.163-0.1,0.239-0.103c0.112-0.029,0.215-0.02,0.316-0.036l0.581-0.109c0.114-0.029,0.152,0.007,0.228-0.021
		c0.013,0,0.051-0.027,0.05-0.04c0.139-0.017,0.254-0.008,0.368-0.025c0.024-0.001,0.036-0.008,0.074-0.01l0.138-0.043
		c0.063-0.002,0.102-0.014,0.139-0.016l0.14-0.03c0.023-0.014,0.05-0.002,0.063-0.002c0.039-0.001,0.139-0.018,0.164-0.031
		c0.188-0.058,0.038-0.001,0.227-0.033c0.052,0.011,0.379-0.083,0.379-0.083l0.089-0.003c0.014,0-0.013-0.025,0.012-0.038
		c0.013,0,0.077,0.022,0.103,0.021c0.1-0.042,0.377-0.148,0.506-0.115c0.178,0.045,0.28-0.021,0.471-0.027
		c0.217,0.043,0.267-0.009,0.263-0.111c-0.003-0.076-0.031-0.151-0.046-0.202c-0.15,0.056-0.114-0.009-0.178-0.019
		c-0.089,0.003-0.165,0.019-0.24,0.034c-0.165,0.005-0.315,0.062-0.479,0.08c-0.076,0.002-0.163,0.043-0.239,0.046
		c-0.239,0.059-0.489,0.144-0.72,0.139c-0.021,0.064-0.089-0.022-0.112,0.017C44.734,1.921,44.648,2,44.545,1.953
		c-0.102,0.016-0.05,0.04-0.164,0.031c-0.038,0.014-0.036,0.052-0.049,0.053c-0.165,0.006-0.202,0.032-0.343,0.012
		c-0.025-0.012-0.023,0.026-0.036,0.026c-0.151,0.031-0.279,0.023-0.431,0.041c0,0-0.05,0.04-0.062,0.04
		c-0.025,0.027-0.076-0.009-0.128-0.008c0,0-0.05,0.027-0.062,0.053c-0.025,0.001-0.09-0.022-0.115-0.021
		c-0.165,0.005-0.39,0.089-0.441,0.091c-0.088,0.016-0.139,0.005-0.188,0.019c-0.101,0.042-0.139,0.043-0.252,0.047
		c-0.039-0.011-0.037,0.04-0.051,0.04c-0.151,0.005-0.201,0.007-0.316-0.001c-0.039,0.001-0.037,0.039-0.063,0.04
		c-0.327,0.063-0.581,0.071-0.909,0.133c-0.238,0.072-0.591,0.132-0.767,0.189c-0.101,0.029-0.214,0.058-0.276,0.061
		c-0.315,0.062-0.605,0.151-0.897,0.161l-0.152,0.005c-0.006-0.19-0.023-0.342-0.039-0.43c-0.026-0.024,0.011-0.063,0.009-0.089
		c-0.014-0.038-0.077-0.048-0.077-0.048c-0.078-0.404,0.009-0.8-0.462-0.86c-0.087,0.066-0.175,0.095-0.234,0.186
		c-0.072,0.104-0.07,0.18-0.079,0.282c-0.012,0.026-0.051,0.027-0.063,0.041c-0.079,0.294-0.053,0.674-0.052,1.055
		c-0.254,0.009-0.504,0.106-0.719,0.139c-0.151,0.043-0.304,0.017-0.442,0.035c-0.127,0.018-0.318-0.021-0.428,0.123
		c0.239,0.222,1.05,0.079,1.594-0.003c-0.004,0.254,0.004,0.328-0.04,0.52L37.804,4.066L37.804,4.066z"/>
</g>
</svg>
