<?xml version="1.0" encoding="utf-8"?>
<!-- Generator: Adobe Illustrator 16.0.0, SVG Export Plug-In . SVG Version: 6.00 Build 0)  -->
<!DOCTYPE svg PUBLIC "-//W3C//DTD SVG 1.1//EN" "http://www.w3.org/Graphics/SVG/1.1/DTD/svg11.dtd">
<svg version="1.1" id="Layer_1" xmlns="http://www.w3.org/2000/svg" xmlns:xlink="http://www.w3.org/1999/xlink" x="0px" y="0px"
	 width="30px" height="45px" viewBox="30 22.5 30 45" enable-background="new 30 22.5 30 45" xml:space="preserve">
<g>
	<path fill="#FFFFFF" d="M44.895,23.188c-6.123,0-11.284,4.981-11.284,11.105v21.101c0,6.124,5.161,11.105,11.284,11.105
		c6.125,0,11.286-4.981,11.286-11.105V34.293C56.181,28.17,51.02,23.188,44.895,23.188z M44.895,64.279
		c-5.408,0-9.672-4.401-9.672-9.811V35.22c0-5.409,4.264-9.81,9.672-9.81c5.41,0,9.673,4.401,9.673,9.81v19.249
		C54.568,59.878,50.305,64.279,44.895,64.279z"/>
	<path fill="#FFFFFF" d="M46.508,35.22c0,0.864-0.699,1.564-1.564,1.564h-0.096c-0.864,0-1.564-0.7-1.564-1.564v-4.932
		c0-0.864,0.7-1.564,1.564-1.564h0.096c0.865,0,1.564,0.7,1.564,1.564V35.22z"/>
</g>
</svg>
